<?xml version="1.0" encoding="utf-8"?>
<!-- Generator: Adobe Illustrator 24.0.1, SVG Export Plug-In . SVG Version: 6.00 Build 0)  -->
<svg version="1.1" xmlns="http://www.w3.org/2000/svg" xmlns:xlink="http://www.w3.org/1999/xlink" x="0px" y="0px"
	 viewBox="0 0 1200 800" style="enable-background:new 0 0 1200 800;" xml:space="preserve">
<style type="text/css">
	.st0{display:none;}
	.st1{display:inline;fill:#666666;stroke:#000000;stroke-miterlimit:10;}
	.st2{fill:#A08CE8;}
	.st3{fill:#E0FAA8;}
</style>
<g id="Layer_1" class="st0">
	<rect x="-0.5" y="-0.5" class="st1" width="1208" height="807"/>
</g>
<g id="Layer_4">
	<g>
		<path class="st2" d="M527.5,399.8c0,15.4-1,25.2-7.6,35.5c-6.3,10-18.7,19.5-37.1,19.5c-13.8,0-30-5.6-37.7-19.2
			c-7.8-13.3-7.9-22.5-7.9-35.8v-54.6h8.2v56.1c0,14.9,2.5,22.8,5.9,28.5c5.1,8.7,15.1,17.1,30.9,17.1c12.7,0,25.7-5.9,31.1-16.8
			c4.9-9.5,6-18.1,6-28.9v-56.1h8.2V399.8z"/>
		<path class="st2" d="M783.9,446.6h53.6v6.8h-61.9V345.2h8.2V446.6z"/>
		<path class="st2" d="M393.6,349.8c-7.6-4.3-14.3-4.6-29.5-4.6h-21.9v108.2h8.2V418v-1.5v-13.8v-7v-8.2V384v-32h14
			c15.2,0,20.8,1.7,25.4,4.9c5.1,3.6,7.9,10.3,7.9,17c0,6.7-2.9,14-7.8,17.1c-5.8,3.7-12.1,4.6-21,4.7v7c9.8-0.1,16-0.6,24.2-4.4
			c8.1-4,14-13.5,14-24.7C407.1,362.6,401.9,354.4,393.6,349.8z"/>
		<path class="st2" d="M644.7,445.9c-24.9-38.2-27.8-42.5-33.9-46.5c13-4.8,20.6-13.2,20.6-26.3c0-12.2-7.8-21.3-16.3-24.7
			c-7-2.7-13.3-3.2-25.9-3.2h-21.4v108.2h8.4v-27.7h0v-34h0v-39.5h13.6c13.5,0,18.6,1.7,22,3.5c6,3,10,10,10,17.4
			c0,7.5-4,14.9-9.8,17.8c-4.7,2.3-9.4,3.1-17.4,3.4v7.3c4.4,0.2,7.8,1,11,3.2c4.3,3,10,10.6,13.3,15.9l20.8,32.7h10L644.7,445.9z"
			/>
		<path class="st2" d="M729.7,349.8c-7.6-4.3-14.3-4.6-29.5-4.6h-21.9v108.2h8.2v-38.1v-12.5v-7v-14.5V352h14
			c15.2,0,20.8,1.7,25.4,4.9c5.1,3.6,7.9,10.3,7.9,17c0,6.7-2.9,14-7.8,17.1c-5.8,3.7-12.1,4.6-21,4.7v7c9.8-0.1,16-0.6,24.2-4.4
			c8.1-4,14-13.5,14-24.7C743.2,362.6,737.9,354.4,729.7,349.8z"/>
		<g>
			<rect x="894.5" y="395.3" class="st2" width="30.8" height="7"/>
			<polygon class="st2" points="876.1,446.6 927.9,446.6 927.9,453.4 867.7,453.4 867.7,345.2 926.7,345.2 926.7,352.2 876.1,352.2 
							"/>
		</g>
	</g>
</g>
<g id="Layer_3">
	<path class="st3" d="M511,386.8c-22.1,4.5-25.3,9-28.5,40.4c0,0.5-0.5,0.5-0.6,0c-3.2-31.4-6.3-35.9-28.5-40.4
		c-0.3-0.1-0.3-0.8,0-0.8c22.1-4.5,25.3-9,28.5-40.4c0-0.5,0.5-0.5,0.6,0c3.2,31.4,6.3,35.9,28.5,40.4
		C511.3,386.1,511.3,386.8,511,386.8z"/>
</g>
</svg>
