<svg id="Layer_2_copy" data-name="Layer 2 copy" xmlns="http://www.w3.org/2000/svg" viewBox="0 0 932.02 174.4"><defs><style>.cls-1{fill:#303030;}.cls-2{fill:#a08ce8;}</style></defs><title>PURPLE LOGO BLACK</title><path class="cls-1" d="M728.77,899.62c0,24.48-1.52,40.13-12.12,56.54-10.09,15.89-29.78,31-59.06,31-22,0-47.7-8.83-60.06-30.54-12.37-21.2-12.62-35.84-12.62-57V812.8H598v89.34c0,23.73,4,36.35,9.34,45.43,8.08,13.89,24,27.26,49.21,27.26,20.2,0,40.89-9.34,49.47-26.75,7.83-15.14,9.59-28.77,9.59-45.94V812.8h13.13Z" transform="translate(-433.99 -812.8)"/><path class="cls-1" d="M1136.85,974.07h85.31v10.86h-98.43V812.8h13.12Z" transform="translate(-433.99 -812.8)"/><path class="cls-1" d="M515.76,820.12c-12.11-6.81-22.71-7.32-46.94-7.32H434V984.93h13.12V823.65h22.21c24.23,0,33.06,2.78,40.38,7.83,8.08,5.8,12.62,16.4,12.62,27s-4.54,22.21-12.37,27.26c-9.25,5.87-19.33,7.29-33.45,7.53V904.4c15.58-.12,25.45-1,38.5-7C527.87,891,537.21,875.9,537.21,858,537.21,840.56,528.88,827.44,515.76,820.12Z" transform="translate(-433.99 -812.8)"/><path class="cls-1" d="M915.27,973.07c-39.62-60.83-44.17-67.64-54-74,20.7-7.58,32.81-21,32.81-41.9a42.43,42.43,0,0,0-26-39.37c-11.11-4.29-21.2-5.05-41.14-5.05H792.87V984.93h13.37V940.8h0V886.7h0V823.91H828c21.45,0,29.53,2.77,35.08,5.55,9.59,4.79,15.9,15.9,15.9,27.76s-6.31,23.72-15.65,28.27c-7.41,3.6-15,5-27.65,5.39v11.7c6.93.37,12.42,1.52,17.56,5.12,6.81,4.79,15.9,16.91,21.2,25.24l33.06,52h15.9Z" transform="translate(-433.99 -812.8)"/><path class="cls-1" d="M1050.54,820.12c-12.11-6.81-22.71-7.32-46.94-7.32H968.77V984.93h13.12V823.65h22.21c24.23,0,33.07,2.78,40.39,7.83,8.07,5.8,12.62,16.4,12.62,27s-4.55,22.21-12.37,27.26c-9.26,5.87-19.33,7.29-33.46,7.53V904.4c15.59-.12,25.45-1,38.51-7C1062.66,891,1072,875.9,1072,858,1072,840.56,1063.67,827.44,1050.54,820.12Z" transform="translate(-433.99 -812.8)"/><rect class="cls-1" x="878.9" y="79.75" width="49.09" height="11.11"/><polygon class="cls-1" points="849.5 161.27 932.02 161.27 932.02 172.13 836.12 172.13 836.12 0 930 0 930 11.11 849.5 11.11 849.5 161.27"/><path class="cls-2" d="M702.57,879c-35.21,7.13-40.28,14.32-45.31,64.31-.07.77-.86.77-.94,0-5-50-10.09-57.18-45.31-64.31-.54-.11-.54-1.24,0-1.35,35.22-7.13,40.28-14.32,45.31-64.31.08-.77.87-.77.94,0,5,50,10.1,57.18,45.31,64.31C703.12,877.8,703.12,878.93,702.57,879Z" transform="translate(-433.99 -812.8)"/></svg>